<mxfile host="app.diagrams.net" modified="2023-07-16T05:34:19.117Z" agent="Mozilla/5.0 (Windows NT 10.0; Win64; x64) AppleWebKit/537.36 (KHTML, like Gecko) Chrome/114.0.0.0 Safari/537.36 Edg/114.0.1823.82" etag="XGE5ZJTHFQLPS0-N3gO8" version="21.5.2" type="github">
  <diagram name="第 1 页" id="GxQK_DEnWvKfhFOQbTR9">
    <mxGraphModel dx="630" dy="419" grid="0" gridSize="10" guides="1" tooltips="1" connect="1" arrows="1" fold="1" page="1" pageScale="1" pageWidth="827" pageHeight="1169" math="0" shadow="0">
      <root>
        <mxCell id="0" />
        <mxCell id="1" parent="0" />
        <mxCell id="7UEbHdidYQ2ZTFkR19P8-2" value="[CLS]" style="rounded=0;whiteSpace=wrap;html=1;fillColor=#ffe6cc;strokeColor=#d79b00;" vertex="1" parent="1">
          <mxGeometry x="66" y="724" width="46" height="21" as="geometry" />
        </mxCell>
        <mxCell id="7UEbHdidYQ2ZTFkR19P8-3" value="Tok1" style="rounded=0;whiteSpace=wrap;html=1;fillColor=#ffe6cc;strokeColor=#d79b00;" vertex="1" parent="1">
          <mxGeometry x="120" y="724" width="46" height="21" as="geometry" />
        </mxCell>
        <mxCell id="7UEbHdidYQ2ZTFkR19P8-5" value="[SEP]" style="rounded=0;whiteSpace=wrap;html=1;fillColor=#ffe6cc;strokeColor=#d79b00;" vertex="1" parent="1">
          <mxGeometry x="408" y="724" width="46" height="21" as="geometry" />
        </mxCell>
        <mxCell id="7UEbHdidYQ2ZTFkR19P8-7" value="Tok1" style="rounded=0;whiteSpace=wrap;html=1;fillColor=#ffe6cc;strokeColor=#d79b00;" vertex="1" parent="1">
          <mxGeometry x="317" y="724" width="46" height="21" as="geometry" />
        </mxCell>
        <mxCell id="7UEbHdidYQ2ZTFkR19P8-8" value="[CLS]" style="rounded=0;whiteSpace=wrap;html=1;fillColor=#ffe6cc;strokeColor=#d79b00;" vertex="1" parent="1">
          <mxGeometry x="263" y="724" width="46" height="21" as="geometry" />
        </mxCell>
        <mxCell id="7UEbHdidYQ2ZTFkR19P8-9" value="[SEP]" style="rounded=0;whiteSpace=wrap;html=1;fillColor=#ffe6cc;strokeColor=#d79b00;" vertex="1" parent="1">
          <mxGeometry x="209" y="724" width="46" height="21" as="geometry" />
        </mxCell>
        <mxCell id="7UEbHdidYQ2ZTFkR19P8-10" value="" style="endArrow=none;dashed=1;html=1;dashPattern=1 3;strokeWidth=2;rounded=0;" edge="1" parent="1">
          <mxGeometry width="50" height="50" relative="1" as="geometry">
            <mxPoint x="176" y="743" as="sourcePoint" />
            <mxPoint x="201" y="743" as="targetPoint" />
          </mxGeometry>
        </mxCell>
        <mxCell id="7UEbHdidYQ2ZTFkR19P8-11" value="" style="endArrow=none;dashed=1;html=1;dashPattern=1 3;strokeWidth=2;rounded=0;" edge="1" parent="1">
          <mxGeometry width="50" height="50" relative="1" as="geometry">
            <mxPoint x="373" y="734.41" as="sourcePoint" />
            <mxPoint x="398" y="734.41" as="targetPoint" />
          </mxGeometry>
        </mxCell>
        <mxCell id="7UEbHdidYQ2ZTFkR19P8-12" value="Bert Model" style="rounded=0;whiteSpace=wrap;html=1;fillColor=#f5f5f5;fontColor=#333333;strokeColor=#666666;fontSize=31;fontFamily=Verdana;" vertex="1" parent="1">
          <mxGeometry x="58" y="525" width="401" height="169" as="geometry" />
        </mxCell>
        <mxCell id="7UEbHdidYQ2ZTFkR19P8-13" value="&lt;sub&gt;Ecls&lt;/sub&gt;" style="rounded=0;whiteSpace=wrap;html=1;fillColor=#ffe6cc;strokeColor=#d79b00;" vertex="1" parent="1">
          <mxGeometry x="66" y="473" width="46" height="21" as="geometry" />
        </mxCell>
        <mxCell id="7UEbHdidYQ2ZTFkR19P8-14" value="&lt;sub&gt;Etok1&lt;/sub&gt;" style="rounded=0;whiteSpace=wrap;html=1;fillColor=#ffe6cc;strokeColor=#d79b00;" vertex="1" parent="1">
          <mxGeometry x="120" y="473" width="46" height="21" as="geometry" />
        </mxCell>
        <mxCell id="7UEbHdidYQ2ZTFkR19P8-15" value="E&lt;span style=&quot;font-size: 10px;&quot;&gt;sep&lt;/span&gt;" style="rounded=0;whiteSpace=wrap;html=1;fillColor=#ffe6cc;strokeColor=#d79b00;" vertex="1" parent="1">
          <mxGeometry x="408" y="473" width="46" height="21" as="geometry" />
        </mxCell>
        <mxCell id="7UEbHdidYQ2ZTFkR19P8-16" value="&lt;sub&gt;Etok1&lt;/sub&gt;" style="rounded=0;whiteSpace=wrap;html=1;fillColor=#ffe6cc;strokeColor=#d79b00;" vertex="1" parent="1">
          <mxGeometry x="317" y="473" width="46" height="21" as="geometry" />
        </mxCell>
        <mxCell id="7UEbHdidYQ2ZTFkR19P8-17" value="&lt;sub&gt;Ecls&lt;/sub&gt;" style="rounded=0;whiteSpace=wrap;html=1;fillColor=#ffe6cc;strokeColor=#d79b00;" vertex="1" parent="1">
          <mxGeometry x="263" y="473" width="46" height="21" as="geometry" />
        </mxCell>
        <mxCell id="7UEbHdidYQ2ZTFkR19P8-18" value="&lt;sub&gt;Esep&lt;/sub&gt;" style="rounded=0;whiteSpace=wrap;html=1;fillColor=#ffe6cc;strokeColor=#d79b00;" vertex="1" parent="1">
          <mxGeometry x="209" y="473" width="46" height="21" as="geometry" />
        </mxCell>
        <mxCell id="7UEbHdidYQ2ZTFkR19P8-19" value="" style="endArrow=none;dashed=1;html=1;dashPattern=1 3;strokeWidth=2;rounded=0;" edge="1" parent="1">
          <mxGeometry width="50" height="50" relative="1" as="geometry">
            <mxPoint x="176" y="483.38" as="sourcePoint" />
            <mxPoint x="201" y="483.38" as="targetPoint" />
          </mxGeometry>
        </mxCell>
        <mxCell id="7UEbHdidYQ2ZTFkR19P8-20" value="" style="endArrow=none;dashed=1;html=1;dashPattern=1 3;strokeWidth=2;rounded=0;" edge="1" parent="1">
          <mxGeometry width="50" height="50" relative="1" as="geometry">
            <mxPoint x="373" y="474" as="sourcePoint" />
            <mxPoint x="398" y="474" as="targetPoint" />
          </mxGeometry>
        </mxCell>
        <mxCell id="7UEbHdidYQ2ZTFkR19P8-26" value="" style="html=1;shadow=0;align=center;verticalAlign=middle;shape=mxgraph.arrows2.arrow;dy=0.66;dx=12.79;notch=0;rotation=-90;strokeColor=#56517e;strokeWidth=0.5;fillColor=#d0cee2;rounded=0;" vertex="1" parent="1">
          <mxGeometry x="76.75" y="697.25" width="24.5" height="23.5" as="geometry" />
        </mxCell>
        <mxCell id="7UEbHdidYQ2ZTFkR19P8-27" value="" style="html=1;shadow=0;align=center;verticalAlign=middle;shape=mxgraph.arrows2.arrow;dy=0.66;dx=12.79;notch=0;rotation=-90;strokeColor=#56517e;strokeWidth=0.5;fillColor=#d0cee2;rounded=0;" vertex="1" parent="1">
          <mxGeometry x="130.75" y="697.25" width="24.5" height="23.5" as="geometry" />
        </mxCell>
        <mxCell id="7UEbHdidYQ2ZTFkR19P8-28" value="" style="html=1;shadow=0;align=center;verticalAlign=middle;shape=mxgraph.arrows2.arrow;dy=0.66;dx=12.79;notch=0;rotation=-90;strokeColor=#56517e;strokeWidth=0.5;fillColor=#d0cee2;rounded=0;" vertex="1" parent="1">
          <mxGeometry x="219.75" y="697.25" width="24.5" height="23.5" as="geometry" />
        </mxCell>
        <mxCell id="7UEbHdidYQ2ZTFkR19P8-29" value="" style="html=1;shadow=0;align=center;verticalAlign=middle;shape=mxgraph.arrows2.arrow;dy=0.66;dx=12.79;notch=0;rotation=-90;strokeColor=#56517e;strokeWidth=0.5;fillColor=#d0cee2;rounded=0;" vertex="1" parent="1">
          <mxGeometry x="272" y="697.25" width="24.5" height="23.5" as="geometry" />
        </mxCell>
        <mxCell id="7UEbHdidYQ2ZTFkR19P8-30" value="" style="html=1;shadow=0;align=center;verticalAlign=middle;shape=mxgraph.arrows2.arrow;dy=0.66;dx=12.79;notch=0;rotation=-90;strokeColor=#56517e;strokeWidth=0.5;fillColor=#d0cee2;rounded=0;" vertex="1" parent="1">
          <mxGeometry x="327.75" y="697.25" width="24.5" height="23.5" as="geometry" />
        </mxCell>
        <mxCell id="7UEbHdidYQ2ZTFkR19P8-31" value="" style="html=1;shadow=0;align=center;verticalAlign=middle;shape=mxgraph.arrows2.arrow;dy=0.66;dx=12.79;notch=0;rotation=-90;strokeColor=#56517e;strokeWidth=0.5;fillColor=#d0cee2;rounded=0;" vertex="1" parent="1">
          <mxGeometry x="418.75" y="697.25" width="24.5" height="23.5" as="geometry" />
        </mxCell>
        <mxCell id="7UEbHdidYQ2ZTFkR19P8-33" value="" style="html=1;shadow=0;align=center;verticalAlign=middle;shape=mxgraph.arrows2.arrow;dy=0.66;dx=12.79;notch=0;rotation=-90;strokeColor=#56517e;strokeWidth=0.5;fillColor=#d0cee2;rounded=0;" vertex="1" parent="1">
          <mxGeometry x="76.75" y="499" width="24.5" height="23.5" as="geometry" />
        </mxCell>
        <mxCell id="7UEbHdidYQ2ZTFkR19P8-34" value="" style="html=1;shadow=0;align=center;verticalAlign=middle;shape=mxgraph.arrows2.arrow;dy=0.66;dx=12.79;notch=0;rotation=-90;strokeColor=#56517e;strokeWidth=0.5;fillColor=#d0cee2;rounded=0;" vertex="1" parent="1">
          <mxGeometry x="130.75" y="499" width="24.5" height="23.5" as="geometry" />
        </mxCell>
        <mxCell id="7UEbHdidYQ2ZTFkR19P8-35" value="" style="html=1;shadow=0;align=center;verticalAlign=middle;shape=mxgraph.arrows2.arrow;dy=0.66;dx=12.79;notch=0;rotation=-90;strokeColor=#56517e;strokeWidth=0.5;fillColor=#d0cee2;rounded=0;" vertex="1" parent="1">
          <mxGeometry x="219.75" y="499" width="24.5" height="23.5" as="geometry" />
        </mxCell>
        <mxCell id="7UEbHdidYQ2ZTFkR19P8-36" value="" style="html=1;shadow=0;align=center;verticalAlign=middle;shape=mxgraph.arrows2.arrow;dy=0.66;dx=12.79;notch=0;rotation=-90;strokeColor=#56517e;strokeWidth=0.5;fillColor=#d0cee2;rounded=0;" vertex="1" parent="1">
          <mxGeometry x="272" y="499" width="24.5" height="23.5" as="geometry" />
        </mxCell>
        <mxCell id="7UEbHdidYQ2ZTFkR19P8-37" value="" style="html=1;shadow=0;align=center;verticalAlign=middle;shape=mxgraph.arrows2.arrow;dy=0.66;dx=12.79;notch=0;rotation=-90;strokeColor=#56517e;strokeWidth=0.5;fillColor=#d0cee2;rounded=0;" vertex="1" parent="1">
          <mxGeometry x="327.75" y="499" width="24.5" height="23.5" as="geometry" />
        </mxCell>
        <mxCell id="7UEbHdidYQ2ZTFkR19P8-38" value="" style="html=1;shadow=0;align=center;verticalAlign=middle;shape=mxgraph.arrows2.arrow;dy=0.66;dx=12.79;notch=0;rotation=-90;strokeColor=#56517e;strokeWidth=0.5;fillColor=#d0cee2;rounded=0;" vertex="1" parent="1">
          <mxGeometry x="418.75" y="499" width="24.5" height="23.5" as="geometry" />
        </mxCell>
        <mxCell id="7UEbHdidYQ2ZTFkR19P8-39" value="&lt;span style=&quot;font-size: 10px;&quot;&gt;E&lt;/span&gt;&lt;span style=&quot;font-size: 8.33333px;&quot;&gt;&lt;sub&gt;0&lt;/sub&gt;&lt;/span&gt;" style="rounded=0;whiteSpace=wrap;html=1;fillColor=#d5e8d4;strokeColor=#82b366;" vertex="1" parent="1">
          <mxGeometry x="66" y="431" width="46" height="21" as="geometry" />
        </mxCell>
        <mxCell id="7UEbHdidYQ2ZTFkR19P8-40" value="&lt;span style=&quot;font-size: 10px;&quot;&gt;E&lt;sub&gt;1&lt;/sub&gt;&lt;/span&gt;" style="rounded=0;whiteSpace=wrap;html=1;fillColor=#d5e8d4;strokeColor=#82b366;" vertex="1" parent="1">
          <mxGeometry x="261.25" y="431" width="46" height="21" as="geometry" />
        </mxCell>
        <mxCell id="7UEbHdidYQ2ZTFkR19P8-42" value="" style="shape=cross;whiteSpace=wrap;html=1;fillColor=#bac8d3;strokeColor=none;" vertex="1" parent="1">
          <mxGeometry x="81.5" y="455" width="15" height="15" as="geometry" />
        </mxCell>
        <mxCell id="7UEbHdidYQ2ZTFkR19P8-44" value="" style="shape=cross;whiteSpace=wrap;html=1;fillColor=#bac8d3;strokeColor=none;" vertex="1" parent="1">
          <mxGeometry x="276.75" y="455" width="15" height="15" as="geometry" />
        </mxCell>
        <mxCell id="7UEbHdidYQ2ZTFkR19P8-47" value="P" style="text;html=1;strokeColor=none;fillColor=none;align=center;verticalAlign=middle;whiteSpace=wrap;rounded=0;fontSize=10;" vertex="1" parent="1">
          <mxGeometry x="149" y="356" width="60" height="30" as="geometry" />
        </mxCell>
      </root>
    </mxGraphModel>
  </diagram>
</mxfile>
